<?xml version="1.0" standalone="no"?>
<!DOCTYPE svg PUBLIC "-//W3C//DTD SVG 20010904//EN"
 "http://www.w3.org/TR/2001/REC-SVG-20010904/DTD/svg10.dtd">
<svg version="1.0" xmlns="http://www.w3.org/2000/svg"
 width="260.000000pt" height="260.000000pt" viewBox="0 0 260.000000 260.000000"
 preserveAspectRatio="xMidYMid meet">
<metadata>
Created by potrace 1.11, written by Peter Selinger 2001-2013
</metadata>
<g transform="translate(0.000000,260.000000) scale(0.100000,-0.100000)"
fill="#000000" stroke="none">
<path d="M605 2398 c-118 -13 -210 -62 -297 -156 -200 -219 -151 -570 102
-732 89 -57 151 -70 336 -70 l164 0 0 -125 0 -125 -153 0 c-213 0 -297 -25
-409 -120 -173 -148 -214 -428 -91 -623 131 -207 399 -284 623 -178 84 40 183
139 228 229 l37 76 5 185 5 186 123 3 122 3 0 -158 c0 -167 9 -219 51 -308 30
-64 139 -175 206 -209 196 -99 418 -64 569 90 190 192 189 490 -1 680 -112
113 -205 144 -432 144 l-154 0 3 123 3 122 185 5 185 5 75 37 c191 93 304 304
273 508 -33 209 -211 388 -408 408 -169 17 -304 -27 -412 -135 -113 -114 -143
-203 -143 -430 l0 -153 -125 0 -125 0 0 164 c0 196 -15 260 -84 353 -112 153
-273 223 -461 201z m160 -257 c52 -23 103 -74 126 -126 15 -33 19 -66 19 -188
l0 -148 -158 3 c-157 3 -159 3 -208 33 -159 99 -150 336 17 419 64 32 144 35
204 7z m1196 9 c20 -6 57 -28 82 -50 77 -68 101 -174 63 -273 -21 -55 -92
-122 -145 -137 -20 -5 -100 -10 -178 -10 l-143 0 0 136 c0 76 5 154 12 176 15
51 82 126 133 149 44 21 121 24 176 9z m-563 -838 l3 -123 -123 3 -123 3 -3
109 c-1 61 0 116 2 123 4 11 32 13 123 11 l118 -3 3 -123z m-488 -509 c0 -135
-2 -153 -24 -198 -43 -91 -117 -138 -216 -138 -137 0 -239 101 -240 236 0 69
19 120 63 165 65 68 105 80 280 81 l137 1 0 -147z m1047 132 c99 -29 167 -124
166 -230 -2 -247 -325 -330 -451 -116 -26 44 -27 53 -30 204 l-4 157 134 0
c91 0 151 -5 185 -15z"/>
</g>
</svg>
